<?xml version="1.0" encoding="UTF-8"?>
<svg version="1.1" xmlns="http://www.w3.org/2000/svg" width="190" height="38">
<path d="M0 0 C62.7 0 125.4 0 190 0 C190 12.54 190 25.08 190 38 C127.3 38 64.6 38 0 38 C0 25.46 0 12.92 0 0 Z " fill="#000000" transform="translate(0,0)"/>
<path d="M0 0 C23.43 0 46.86 0 71 0 C71 12.54 71 25.08 71 38 C47.57 38 24.14 38 0 38 C0 25.46 0 12.92 0 0 Z " fill="#000000" transform="translate(119,0)"/>
<path d="M0 0 C15.84 0 31.68 0 48 0 C48 12.54 48 25.08 48 38 C32.16 38 16.32 38 0 38 C0 25.46 0 12.92 0 0 Z " fill="#FBFBFC" transform="translate(71,0)"/>
<path d="M0 0 C1.25554687 -0.00128906 2.51109375 -0.00257812 3.8046875 -0.00390625 C4.46178711 -0.00181152 5.11888672 0.0002832 5.79589844 0.00244141 C7.80411335 0.00779016 9.81210459 0.00249559 11.8203125 -0.00390625 C13.07585937 -0.00261719 14.33140625 -0.00132813 15.625 0 C16.78644531 0.00112793 17.94789062 0.00225586 19.14453125 0.00341797 C21.8125 0.1328125 21.8125 0.1328125 22.8125 1.1328125 C22.89881874 2.47548663 22.91956473 3.82255572 22.91015625 5.16796875 C22.90765869 5.89636963 22.90516113 6.62477051 22.90258789 7.37524414 C22.89348389 8.3058667 22.88437988 9.23648926 22.875 10.1953125 C22.854375 13.1446875 22.83375 16.0940625 22.8125 19.1328125 C12.9125 19.1328125 3.0125 19.1328125 -7.1875 19.1328125 C-7.208125 16.1834375 -7.22875 13.2340625 -7.25 10.1953125 C-7.259104 9.26468994 -7.26820801 8.33406738 -7.27758789 7.37524414 C-7.28008545 6.64684326 -7.28258301 5.91844238 -7.28515625 5.16796875 C-7.29039307 4.419104 -7.29562988 3.67023926 -7.30102539 2.89868164 C-7.03629206 -1.21920267 -3.31145313 0.0032159 0 0 Z " fill="#5A6F7E" transform="translate(87.1875,9.8671875)"/>
<path d="M0 0 C7.92 0 15.84 0 24 0 C24 2.64 24 5.28 24 8 C23.030625 7.505 22.06125 7.01 21.0625 6.5 C18.41867592 4.92668876 18.41867592 4.92668876 17 5 C16.34 5.66 15.68 6.32 15 7 C17.97 7.99 20.94 8.98 24 10 C24 11.32 24 12.64 24 14 C16.08 14 8.16 14 0 14 C0.33 12.35 0.66 10.7 1 9 C3.64 8.34 6.28 7.68 9 7 C8.34 6.34 7.68 5.68 7 5 C7.33 4.67 7.66 4.34 8 4 C7.34 3.67 6.68 3.34 6 3 C5.67 3.99 5.34 4.98 5 6 C2.4375 7.1875 2.4375 7.1875 0 8 C0 5.36 0 2.72 0 0 Z " fill="#F6F9FA" transform="translate(83,13)"/>
<path d="M0 0 C1.25159912 0.00523682 2.50319824 0.01047363 3.79272461 0.01586914 C4.78942421 0.01799156 4.78942421 0.01799156 5.80625916 0.02015686 C7.93590735 0.02577021 10.06545175 0.03832485 12.19506836 0.05102539 C13.63582205 0.05603868 15.07657739 0.06060188 16.51733398 0.06469727 C20.05577938 0.07574394 23.59416375 0.09301747 27.13256836 0.11352539 C27.79256836 1.76352539 28.45256836 3.41352539 29.13256836 5.11352539 C17.58256836 5.11352539 6.03256836 5.11352539 -5.86743164 5.11352539 C-3.37752936 0.13372083 -3.37752936 0.13372083 0 0 Z " fill="#213D52" transform="translate(82.867431640625,29.886474609375)"/>
<path d="M0 0 C8.58 0 17.16 0 26 0 C26 4.95 26 9.9 26 15 C25.67 13.68 25.34 12.36 25 11 C22.03 10.34 19.06 9.68 16 9 C16 7.33333333 16 5.66666667 16 4 C18.66666667 5.33333333 21.33333333 6.66666667 24 8 C24.33 5.69 24.66 3.38 25 1 C17.08 1 9.16 1 1 1 C1.33 3.31 1.66 5.62 2 8 C5.12197478 6.6910428 5.12197478 6.6910428 7 4 C10 5 10 5 11 6 C10.67 6.99 10.34 7.98 10 9 C7.98320916 9.66930861 6.0069694 9.94626799 3.91015625 10.27734375 C1.45508898 10.95929598 1.45508898 10.95929598 0 15 C0 10.05 0 5.1 0 0 Z " fill="#B3BFC8" transform="translate(82,12)"/>
<path d="M0 0 C0.66 0 1.32 0 2 0 C2.66 0.66 3.32 1.32 4 2 C5.32 2 6.64 2 8 2 C8 1.34 8 0.68 8 0 C9.98 0 11.96 0 14 0 C14 0.66 14 1.32 14 2 C14.99 2 15.98 2 17 2 C16.67 2.99 16.34 3.98 16 5 C10.39 5 4.78 5 -1 5 C-0.67 3.35 -0.34 1.7 0 0 Z " fill="#EFF4F7" transform="translate(84,22)"/>
<path d="M0 0 C6.27 0 12.54 0 19 0 C18.67 0.66 18.34 1.32 18 2 C13.69185156 3.01631395 9.53608185 3.10751104 5.125 3.0625 C3.97257812 3.05347656 2.82015625 3.04445312 1.6328125 3.03515625 C0.76398438 3.02355469 -0.10484375 3.01195312 -1 3 C-0.67 2.01 -0.34 1.02 0 0 Z " fill="#133046" transform="translate(79,31)"/>
<path d="M0 0 C3.11373372 1.49920512 6.12228205 3.08152136 9 5 C9 5.66 9 6.32 9 7 C4.545 6.01 4.545 6.01 0 5 C0 3.33333333 0 1.66666667 0 0 Z " fill="#4E8CBE" transform="translate(98,16)"/>
<path d="M0 0 C3 1 3 1 4 2 C3.67 2.99 3.34 3.98 3 5 C0.93359375 5.73046875 0.93359375 5.73046875 -1.5625 6.1875 C-2.38878906 6.34605469 -3.21507813 6.50460938 -4.06640625 6.66796875 C-5.02353516 6.83232422 -5.02353516 6.83232422 -6 7 C-5 4 -5 4 -3 2.9375 C-2.34 2.628125 -1.68 2.31875 -1 2 C-0.67 1.34 -0.34 0.68 0 0 Z " fill="#508CBD" transform="translate(89,16)"/>
<path d="M0 0 C1.98 0 3.96 0 6 0 C6 0.66 6 1.32 6 2 C6.99 2 7.98 2 9 2 C8.67 2.99 8.34 3.98 8 5 C6.68 4.67 5.36 4.34 4 4 C4.33 3.34 4.66 2.68 5 2 C3.35 2 1.7 2 0 2 C0 1.34 0 0.68 0 0 Z " fill="#D6DCE0" transform="translate(92,22)"/>
</svg>
