<?xml version="1.0" encoding="UTF-8"?>
<svg version="1.1" xmlns="http://www.w3.org/2000/svg" width="447" height="300">
<path d="M0 0 C132.99 0 265.98 0 403 0 C403 104.61 403 209.22 403 317 C270.01 317 137.02 317 0 317 C0 212.39 0 107.78 0 0 Z " fill="#FDFEFE" transform="translate(0,0)"/>
<path d="M0 0 C69.96 0 139.92 0 212 0 C212 40.92 212 81.84 212 124 C142.04 124 72.08 124 0 124 C0 83.08 0 42.16 0 0 Z " fill="#FBFCFD" transform="translate(95,103)"/>
<path d="M0 0 C0.95558998 -0.00709439 1.91117996 -0.01418877 2.89572722 -0.02149814 C6.10037232 -0.03911162 9.30380997 -0.0209556 12.50843811 -0.00291443 C14.80483554 -0.00805197 17.10122904 -0.015332 19.39761353 -0.02459717 C25.63733871 -0.04314112 31.87663762 -0.0301529 38.11634517 -0.01050687 C44.64252022 0.00585799 51.16866782 -0.00293035 57.69485474 -0.00802612 C68.65622431 -0.0125498 79.61741938 0.00323479 90.57875061 0.03126526 C101.85323676 0.06009609 113.1274799 0.06718944 124.4019928 0.05177307 C137.99152305 0.03321665 151.58086121 0.03495368 165.1703968 0.0539875 C170.35968083 0.06086317 175.54887451 0.05982016 180.73815727 0.05244255 C186.84905498 0.04478506 192.95960234 0.0568889 199.07044029 0.08429146 C201.31420603 0.09118222 203.55800445 0.09126591 205.80176926 0.08407593 C208.86294835 0.07539651 211.92304253 0.0913127 214.98413086 0.11352539 C215.87372511 0.10528462 216.76331937 0.09704386 217.67987102 0.08855337 C223.24319755 0.1631451 226.27905588 0.99630303 230.55555725 4.62818909 C231.89764491 7.3123644 231.67840821 9.36677832 231.67581177 12.37345886 C231.67787376 14.20766136 231.67787376 14.20766136 231.67997742 16.07891846 C231.67643805 17.44120813 231.67280324 18.80349755 231.66908264 20.16578674 C231.66880069 21.59463499 231.66895866 23.02348338 231.66952515 24.45233154 C231.66981281 28.33846543 231.6639211 32.22456863 231.65695119 36.11069536 C231.65071248 40.16928993 231.65011344 44.22788514 231.64892578 48.28648376 C231.645814 55.97523047 231.63760265 63.663963 231.62757629 71.35270345 C231.61641043 80.10469745 231.61090351 88.85669211 231.60588086 97.60869145 C231.59541992 115.61519871 231.57782342 133.62169276 231.55555725 151.62818909 C230.89555725 151.62818909 230.23555725 151.62818909 229.55555725 151.62818909 C229.26680725 152.26756409 228.97805725 152.90693909 228.68055725 153.56568909 C227.55555725 155.62818909 227.55555725 155.62818909 225.55555725 156.62818909 C222.50327085 156.73528427 219.47335083 156.78041163 216.42045593 156.78208923 C214.98267385 156.78866261 214.98267385 156.78866261 213.51584566 156.79536879 C210.28380098 156.80879053 207.05178359 156.81494317 203.81971741 156.82106018 C201.51066971 156.82895835 199.20162326 156.83722712 196.89257812 156.84584045 C189.29327071 156.87208876 181.6939577 156.88736872 174.09461975 156.90162659 C171.48267488 156.9069847 168.87073004 156.9123622 166.25878525 156.91775894 C155.39851395 156.93938983 144.53824497 156.95828025 133.67795753 156.96938133 C130.85916261 156.97231112 128.04036772 156.97527277 125.22157288 156.97828674 C124.17065154 156.97940582 124.17065154 156.97940582 123.09849946 156.9805475 C111.74279866 156.99320774 100.38725421 157.02643963 89.03162654 157.06808858 C77.37885204 157.11047789 65.72616596 157.13366491 54.07331502 157.1393019 C47.52822676 157.14296392 40.98340358 157.15507592 34.43838882 157.18740463 C28.28404942 157.2173679 22.13013712 157.22383898 15.97574043 157.21202087 C13.71337229 157.21179917 11.450985 157.22018368 9.18868446 157.23767471 C6.10681034 157.26021089 3.02650549 157.25214336 -0.05537415 157.2361908 C-0.95673139 157.25007288 -1.85808863 157.26395497 -2.78675973 157.27825773 C-8.84557499 157.20064812 -8.84557499 157.20064812 -11.96875954 154.21518898 C-14.15688499 150.37921642 -14.574888 148.38920165 -14.5983429 143.95452881 C-14.60694336 142.7473671 -14.61554382 141.54020538 -14.62440491 140.29646301 C-14.62884024 138.95155377 -14.63313859 137.60664408 -14.63731384 136.26173401 C-14.64521408 134.85084836 -14.65348298 133.43996474 -14.66209412 132.02908325 C-14.68832241 127.3889611 -14.7036221 122.74882989 -14.71788025 118.10865784 C-14.72323951 116.51207791 -14.72861702 114.91549804 -14.7340126 113.31891823 C-14.75564212 106.67834728 -14.77437943 100.03777878 -14.78563499 93.39718151 C-14.80187826 83.8761534 -14.83506394 74.35553314 -14.89203584 64.8346588 C-14.93071789 58.14245125 -14.95026558 51.45035286 -14.95555556 44.75803643 C-14.95921133 40.75981293 -14.97125577 36.76202435 -15.00365829 32.76392174 C-15.03370908 29.00206258 -15.04006201 25.24090214 -15.02827454 21.47894859 C-15.02805355 20.09905901 -15.03637989 18.71913729 -15.05392838 17.33935928 C-15.07660009 15.45397586 -15.06534675 13.56827588 -15.05244446 11.68280029 C-15.0557546 10.62810138 -15.05906475 9.57340246 -15.0624752 8.48674297 C-13.26693024 0.18190076 -7.15153813 -0.09491062 0 0 Z M2.55555725 16.62818909 C2.55555725 57.54818909 2.55555725 98.46818909 2.55555725 140.62818909 C72.51555725 140.62818909 142.47555725 140.62818909 214.55555725 140.62818909 C214.55555725 99.70818909 214.55555725 58.78818909 214.55555725 16.62818909 C144.59555725 16.62818909 74.63555725 16.62818909 2.55555725 16.62818909 Z " fill="#243D51" transform="translate(92.44444274902344,86.37181091308594)"/>
<path d="M0 0 C0.99430881 -0.01288777 1.98861762 -0.02577555 3.01305699 -0.03905386 C6.34893062 -0.07472878 9.68331182 -0.06743689 13.01934814 -0.06016541 C15.40941104 -0.07647931 17.79945812 -0.09527265 20.18948364 -0.11636353 C26.01059956 -0.16007515 31.8312576 -0.17512244 37.65252873 -0.17501277 C42.38588861 -0.17513105 47.11912627 -0.18510774 51.85245514 -0.20203972 C65.27974938 -0.24912133 78.70675483 -0.27218712 92.13413081 -0.26285989 C93.2195839 -0.2621062 93.2195839 -0.2621062 94.32696533 -0.26133728 C95.05148703 -0.26082969 95.77600874 -0.26032209 96.52248564 -0.25979912 C108.25972517 -0.25300783 119.99595469 -0.30251165 131.73292789 -0.37794632 C143.79157105 -0.45483947 155.84972604 -0.49065646 167.90862012 -0.48344797 C174.67600406 -0.48021091 181.44238904 -0.49360457 188.20955658 -0.55087471 C194.57629647 -0.6021935 200.9408656 -0.60054658 207.30765152 -0.55839729 C209.64210879 -0.55184945 211.97670629 -0.56402853 214.31094742 -0.59646225 C232.87913499 -0.83723532 232.87913499 -0.83723532 237.50522614 3.18853951 C239.7996309 5.95918702 241.4897794 8.64018563 243.19610596 11.79554749 C244.34225189 13.20718983 245.51837027 14.59593838 246.74298096 15.94007874 C247.54542236 16.86143616 247.54542236 16.86143616 248.36407471 17.80140686 C248.88614502 18.39759827 249.40821533 18.99378967 249.94610596 19.60804749 C251.53738836 21.4301994 253.12717376 23.25344867 254.70977783 25.08314514 C255.69712936 26.22067531 256.6932207 27.3506805 257.69805908 28.47279358 C261.19610596 32.46406014 261.19610596 32.46406014 261.19610596 35.79554749 C260.53610596 35.79554749 259.87610596 35.79554749 259.19610596 35.79554749 C258.82485596 36.69273499 258.82485596 36.69273499 258.44610596 37.60804749 C256.97672222 40.17946903 255.70407462 41.23348617 253.19610596 42.79554749 C250.8916117 43.17619765 250.8916117 43.17619765 248.30095863 43.18424416 C246.81586121 43.19967921 246.81586121 43.19967921 245.30076182 43.21542609 C244.21536754 43.2114624 243.12997325 43.20749871 242.01168823 43.20341492 C240.85685861 43.21091715 239.70202899 43.21841939 238.51220453 43.22614896 C235.30608986 43.24380948 232.10028434 43.24797618 228.89413166 43.24635768 C225.43661593 43.24780148 221.97918537 43.26638477 218.52171326 43.28260803 C210.96186804 43.31473265 203.40209103 43.32454211 195.84218645 43.33025026 C191.12235512 43.33400037 186.40254203 43.3428072 181.68272018 43.35274887 C168.61601746 43.3796879 155.54933238 43.40219788 142.48259926 43.40462685 C141.22832307 43.40486021 141.22832307 43.40486021 139.94870796 43.40509828 C138.2535514 43.40538934 136.55839485 43.40567471 134.86323829 43.40595444 C133.6010156 43.40616872 133.6010156 43.40616872 132.31329346 43.40638733 C131.47078535 43.406527 130.62827723 43.40666667 129.76023857 43.40681057 C116.10386858 43.40994687 102.44781555 43.44654681 88.79155023 43.49802358 C74.77244205 43.55044716 60.75349047 43.57674003 46.7342819 43.57617795 C38.86226002 43.57643074 30.9906025 43.58770048 23.11867142 43.62735367 C16.41663502 43.66094188 9.71510485 43.67045321 3.01301052 43.64859672 C-0.40677642 43.63814868 -3.82557157 43.63901448 -7.24525261 43.67036057 C-10.95288362 43.69838257 -14.65792028 43.68344406 -18.36550903 43.65751648 C-19.44644187 43.67586001 -20.52737471 43.69420354 -21.64106309 43.71310294 C-28.73316312 43.60060593 -28.73316312 43.60060593 -31.83360982 41.26944995 C-34.21738924 38.60840978 -35.7259258 36.85786483 -35.99139404 33.24085999 C-34.39428788 29.95208217 -32.22775607 27.36684024 -29.80389404 24.67054749 C-28.8004569 23.52153482 -27.79786592 22.37178269 -26.79608154 21.22132874 C-26.2930249 20.64850159 -25.78996826 20.07567444 -25.27166748 19.48548889 C-23.10143761 16.98676448 -21.01608794 14.42663122 -18.92889404 11.85804749 C-17.55575432 10.16903341 -16.18074361 8.48153874 -14.80389404 6.79554749 C-13.80565172 5.25672834 -13.80565172 5.25672834 -12.78724289 3.68682194 C-9.25104218 -0.50569988 -5.17041731 -0.05552817 0 0 Z " fill="#133147" transform="translate(88.80389404296875,249.20445251464844)"/>
<path d="M0 0 C75.24 0 150.48 0 228 0 C228 45.54 228 91.08 228 138 C152.76 138 77.52 138 0 138 C0 92.46 0 46.92 0 0 Z M8 7 C8 47.92 8 88.84 8 131 C77.96 131 147.92 131 220 131 C220 90.08 220 49.16 220 7 C150.04 7 80.08 7 8 7 Z " fill="#283F51" transform="translate(87,96)"/>
<path d="M0 0 C0.95982338 -0.00427212 1.91964675 -0.00854425 2.90855569 -0.01294583 C6.12727009 -0.0211868 9.3446837 0.00632842 12.5632782 0.03364563 C14.8694048 0.03505585 17.17553364 0.03426462 19.48165894 0.03143311 C25.74582198 0.02999657 32.00950782 0.05942551 38.27355981 0.09430289 C44.81852831 0.12552644 51.36350734 0.12849399 57.90853882 0.13442993 C68.89509876 0.14737963 79.88149124 0.17945874 90.8679657 0.22407532 C102.18338648 0.26997994 113.49875965 0.30536739 124.81425476 0.32661438 C125.51189811 0.327928 126.20954146 0.32924161 126.92832551 0.33059504 C130.42824471 0.33712029 133.92816425 0.34343882 137.42808402 0.34965456 C166.45723083 0.40147676 195.48620432 0.48990459 224.5151825 0.60127258 C224.5151825 0.93127258 224.5151825 1.26127258 224.5151825 1.60127258 C168.5801825 2.09627258 168.5801825 2.09627258 111.5151825 2.60127258 C111.5151825 4.25127258 111.5151825 5.90127258 111.5151825 7.60127258 C165.9651825 8.09627258 165.9651825 8.09627258 221.5151825 8.60127258 C221.5151825 8.93127258 221.5151825 9.26127258 221.5151825 9.60127258 C146.6051825 9.60127258 71.6951825 9.60127258 -5.4848175 9.60127258 C-5.4848175 55.14127258 -5.4848175 100.68127258 -5.4848175 147.60127258 C-7.1348175 147.60127258 -8.7848175 147.60127258 -10.4848175 147.60127258 C-8.5048175 151.06627258 -8.5048175 151.06627258 -6.4848175 154.60127258 C70.7351825 154.60127258 147.9551825 154.60127258 227.5151825 154.60127258 C224.83135717 157.28509791 222.77364119 156.85131112 219.12498629 156.88274568 C218.2191676 156.8803306 217.31334892 156.87791551 216.38008118 156.87542725 C215.42155979 156.88066392 214.46303839 156.8859006 213.4754709 156.89129597 C210.24338669 156.90637322 207.0114597 156.90700281 203.77934265 156.90766907 C201.47029348 156.91528535 199.16124686 156.92371192 196.85220337 156.93289185 C190.56505881 156.95489584 184.27796289 156.96364364 177.99078417 156.96871829 C174.06665369 156.97235483 170.14253608 156.97859119 166.21841049 156.98571968 C155.35813629 157.00518277 144.49787521 157.02169114 133.63758278 157.02459621 C132.59461455 157.02487757 132.59461455 157.02487757 131.53057625 157.02516461 C130.12094744 157.02553086 128.71131863 157.02589456 127.30168982 157.02625572 C126.60192756 157.02643853 125.9021653 157.02662134 125.18119812 157.02680969 C124.48058389 157.02699024 123.77996967 157.02717079 123.05812471 157.02735681 C111.70241531 157.03089941 100.34689543 157.05792571 88.99125178 157.09530758 C77.33846794 157.13336132 65.6857873 157.15231209 54.03294027 157.15305573 C47.4878646 157.15385059 40.94303331 157.16268543 34.39801407 157.19105339 C28.24365827 157.21713023 22.08975125 157.21949722 15.93536568 157.20339775 C13.67300378 157.20157499 11.41061669 157.20834792 9.14830971 157.22421646 C6.06641817 157.24452052 2.98612008 157.23421712 -0.0957489 157.21600342 C-1.44778477 157.23580337 -1.44778477 157.23580337 -2.82713449 157.25600332 C-8.88591253 157.17386698 -8.88591253 157.17386698 -12.00913429 154.18785191 C-14.19746882 150.35213649 -14.61526346 148.36215205 -14.63871765 143.9276123 C-14.64731812 142.72045059 -14.65591858 141.51328888 -14.66477966 140.26954651 C-14.669215 138.92463727 -14.67351335 137.57972758 -14.6776886 136.2348175 C-14.68558883 134.82393186 -14.69385773 133.41304823 -14.70246887 132.00216675 C-14.72869716 127.3620446 -14.74399685 122.72191338 -14.758255 118.08174133 C-14.76361427 116.4851614 -14.76899178 114.88858153 -14.77438736 113.29200172 C-14.79601687 106.65143078 -14.81475418 100.01086227 -14.82600975 93.37026501 C-14.84225301 83.8492369 -14.8754387 74.32861664 -14.9324106 64.8077423 C-14.97109264 58.11553474 -14.99064033 51.42343636 -14.99593031 44.73111993 C-14.99958609 40.73289643 -15.01163052 36.73510784 -15.04403305 32.73700523 C-15.07408383 28.97514607 -15.08043676 25.21398563 -15.06864929 21.45203209 C-15.0684283 20.07214251 -15.07675464 18.69222079 -15.09430313 17.31244278 C-15.11697485 15.42705936 -15.1057215 13.54135937 -15.09281921 11.65588379 C-15.09612936 10.60118487 -15.09943951 9.54648596 -15.10284996 8.45982647 C-13.3015018 0.12814303 -7.16672846 -0.11650369 0 0 Z " fill="#1E384C" transform="translate(92.48481750488281,86.39872741699219)"/>
<path d="M0 0 C75.24 0 150.48 0 228 0 C228 45.54 228 91.08 228 138 C152.76 138 77.52 138 0 138 C0 92.46 0 46.92 0 0 Z M3 3 C3 46.56 3 90.12 3 135 C76.26 135 149.52 135 225 135 C225 91.44 225 47.88 225 3 C151.74 3 78.48 3 3 3 Z " fill="#CED9E1" transform="translate(87,96)"/>
<path d="M0 0 C4.47148741 3.51520892 7.51498056 6.62200512 8.84765625 12.23828125 C10.0955513 15.9126389 10.39497391 16.15882531 13.66015625 17.80078125 C15.08779502 18.40784927 16.52546002 18.99193681 17.97265625 19.55078125 C25.40342548 22.73539663 25.40342548 22.73539663 28.69140625 24.39453125 C29.74231445 24.92336914 29.74231445 24.92336914 30.81445312 25.46289062 C31.52666016 25.82189453 32.23886719 26.18089844 32.97265625 26.55078125 C34.30573139 27.21796406 35.63906024 27.88464019 36.97265625 28.55078125 C43.63932292 31.88411458 50.30598958 35.21744792 56.97265625 38.55078125 C56.97265625 44.82078125 56.97265625 51.09078125 56.97265625 57.55078125 C53.43568144 56.84338629 51.27596007 56.39149177 48.203125 54.921875 C47.54248047 54.60927734 46.88183594 54.29667969 46.20117188 53.97460938 C45.52763672 53.64912109 44.85410156 53.32363281 44.16015625 52.98828125 C43.46728516 52.65892578 42.77441406 52.32957031 42.06054688 51.99023438 C40.36220677 51.18205874 38.66709856 50.36709748 36.97265625 49.55078125 C36.97265625 48.89078125 36.97265625 48.23078125 36.97265625 47.55078125 C36.18632812 47.48503906 35.4 47.41929687 34.58984375 47.3515625 C29.65623044 46.25934789 25.5625135 44.05695526 21.09765625 41.73828125 C20.23785156 41.29935547 19.37804687 40.86042969 18.4921875 40.40820312 C11.80357298 36.99284836 11.80357298 36.99284836 8.67407227 35.32788086 C4.22816394 33.00159875 1.87745086 32.06793637 -3.02734375 33.55078125 C-4.51234375 34.04578125 -4.51234375 34.04578125 -6.02734375 34.55078125 C-12.84100319 35.2374291 -18.36071157 34.42627288 -23.91015625 30.07421875 C-28.35556385 26.00081179 -30.3884778 22.33501403 -32.02734375 16.55078125 C-32.02734375 15.56078125 -32.02734375 14.57078125 -32.02734375 13.55078125 C-26.27873779 15.22236171 -21.28186926 17.33968233 -16.16796875 20.46484375 C-13.79716586 21.66755032 -11.64320498 22.13919469 -9.02734375 22.55078125 C-8.73859375 21.68453125 -8.44984375 20.81828125 -8.15234375 19.92578125 C-7.11067708 16.80078125 -6.06901042 13.67578125 -5.02734375 10.55078125 C-6.54521484 10.16792969 -6.54521484 10.16792969 -8.09375 9.77734375 C-12.01677808 8.65647858 -15.39649544 6.91228443 -18.96484375 4.92578125 C-20.10824219 4.29414063 -21.25164062 3.6625 -22.4296875 3.01171875 C-23.28691406 2.52960938 -24.14414063 2.0475 -25.02734375 1.55078125 C-24.27734375 -0.38671875 -24.27734375 -0.38671875 -23.02734375 -2.44921875 C-15.65609842 -5.47582279 -6.53450374 -4.21007047 0 0 Z " fill="#3A7DB5" transform="translate(247.02734375,137.44921875)"/>
<path d="M0 0 C1.36125 0.7425 1.36125 0.7425 2.75 1.5 C2.75 2.16 2.75 2.82 2.75 3.5 C-3.52 6.47 -9.79 9.44 -16.25 12.5 C-15.7135601 18.24922159 -15.7135601 18.24922159 -13.25 21.5 C-13.25 22.49 -13.25 23.48 -13.25 24.5 C-7.0886657 22.15344928 -1.1996588 19.55503487 4.62109375 16.453125 C6.75 15.5 6.75 15.5 9.75 15.5 C9.18503796 22.5620255 7.02166067 26.37649111 1.875 31.1875 C-5.32511458 36.51558479 -10.46407552 36.88385107 -19.25 36.5 C-19.25 35.84 -19.25 35.18 -19.25 34.5 C-28.10248129 34.5 -34.70113193 38.42089572 -42.32226562 42.47753906 C-44.96571895 43.87961385 -47.63620679 45.22435339 -50.3125 46.5625 C-51.25480469 47.03429687 -52.19710937 47.50609375 -53.16796875 47.9921875 C-57.41814096 50.07148594 -61.70427967 52.07026871 -66.00024414 54.05297852 C-68.88763699 55.38709387 -71.74105647 56.75246079 -74.5703125 58.20703125 C-77.25 59.5 -77.25 59.5 -79.25 59.5 C-79.25 53.23 -79.25 46.96 -79.25 40.5 C-77.290625 39.530625 -75.33125 38.56125 -73.3125 37.5625 C-67.76001825 34.8028159 -62.27726231 31.92898237 -56.8125 29 C-51.20824953 26.00722789 -45.56411291 23.13722238 -39.8125 20.4375 C-39.17965088 20.1384375 -38.54680176 19.839375 -37.89477539 19.53125 C-33.50122538 17.5 -33.50122538 17.5 -31.25 17.5 C-31.15525391 16.64728516 -31.15525391 16.64728516 -31.05859375 15.77734375 C-29.99876565 9.09484867 -27.53676675 5.64186185 -22.25 1.5 C-16.02708289 -2.98628908 -6.96675343 -2.97967051 0 0 Z " fill="#357BB5" transform="translate(177.25,135.5)"/>
<path d="M0 0 C113.85 0.495 113.85 0.495 230 1 C230.33 2.65 230.66 4.3 231 6 C231 5.01 231 4.02 231 3 C231.66 2.67 232.32 2.34 233 2 C233.99 2.99 233.99 2.99 235 4 C234.67 5.32 234.34 6.64 234 8 C157.44 8 80.88 8 2 8 C2 7.01 2 6.02 2 5 C1.34 3.35 0.68 1.7 0 0 Z " fill="#123047" transform="translate(82,234)"/>
<path d="M0 0 C73.26 0 146.52 0 222 0 C222 43.56 222 87.12 222 132 C148.74 132 75.48 132 0 132 C0 88.44 0 44.88 0 0 Z M2 1 C2 26.41 2 51.82 2 78 C2.99 77.505 2.99 77.505 4 77 C4.33 94.16 4.66 111.32 5 129 C14.82785307 129.28931867 14.82785307 129.28931867 24.65600586 129.56811523 C25.87167236 129.60622314 27.08733887 129.64433105 28.33984375 129.68359375 C30.21724243 129.73858032 30.21724243 129.73858032 32.13256836 129.79467773 C35 130 35 130 36 131 C38.39068137 131.09765691 40.75243267 131.12996979 43.14356995 131.12025452 C43.89988156 131.12110894 44.65619317 131.12196337 45.43542331 131.12284368 C47.98895482 131.12450076 50.54242173 131.11897342 53.09594727 131.11352539 C54.91873167 131.11324354 56.7415162 131.11340121 58.56430054 131.1139679 C63.52896888 131.11425596 68.49361328 131.10835779 73.45827603 131.10139394 C78.64063475 131.09516188 83.82299395 131.09455672 89.00535583 131.09336853 C98.82617558 131.09025478 108.64698426 131.08204079 118.46779913 131.07201904 C131.73352704 131.05877443 144.99925796 131.05335835 158.26499081 131.04751682 C179.17666884 131.03810093 200.0883235 131.01818231 221 131 C221 88.1 221 45.2 221 1 C148.73 1 76.46 1 2 1 Z " fill="#556877" transform="translate(90,99)"/>
<path d="M0 0 C71.94 0 143.88 0 218 0 C218 19.8 218 39.6 218 60 C217.01 60.495 217.01 60.495 216 61 C215.67 42.19 215.34 23.38 215 4 C145.04 4 75.08 4 3 4 C2.67 27.76 2.34 51.52 2 76 C1.01 76.495 1.01 76.495 0 77 C0 51.59 0 26.18 0 0 Z " fill="#1F3748" transform="translate(92,100)"/>
<path d="M0 0 C69.96 0 139.92 0 212 0 C212 40.92 212 81.84 212 124 C142.04 124 72.08 124 0 124 C0 83.08 0 42.16 0 0 Z M1 2 C1 25.1 1 48.2 1 72 C2.65 72 4.3 72 6 72 C4.515 72.495 4.515 72.495 3 73 C3.00523682 73.57032959 3.01047363 74.14065918 3.01586914 74.72827148 C3.03658221 77.29800323 3.0496419 79.86771747 3.0625 82.4375 C3.07087891 83.33533203 3.07925781 84.23316406 3.08789062 85.15820312 C3.09111328 86.01220703 3.09433594 86.86621094 3.09765625 87.74609375 C3.10289307 88.53685303 3.10812988 89.3276123 3.11352539 90.14233398 C3 92 3 92 2 93 C2 86.73 2 80.46 2 74 C1.67 74 1.34 74 1 74 C1 90.17 1 106.34 1 123 C70.3 123 139.6 123 211 123 C211.020625 103.220625 211.04125 83.44125 211.0625 63.0625 C211.071604 56.80676025 211.08070801 50.55102051 211.09008789 44.10571289 C211.09343139 38.52001218 211.09343139 38.52001218 211.09544373 32.93431091 C211.09698384 30.43768638 211.10051012 27.94106262 211.10557556 25.44444275 C211.11284859 21.67266539 211.11390757 17.90093366 211.11352539 14.12915039 C211.1171235 13.00854501 211.12072161 11.88793962 211.12442875 10.7333765 C211.1223625 9.21993483 211.1223625 9.21993483 211.12025452 7.67591858 C211.12117631 6.79191911 211.1220981 5.90791964 211.12304783 4.9971323 C211.22131594 3.00055445 211.22131594 3.00055445 210 2 C207.30669231 1.90215589 204.63903832 1.87006205 201.94529724 1.87974548 C201.09098037 1.87889106 200.2366635 1.87803663 199.35645825 1.87715632 C196.4712606 1.87549889 193.58612009 1.88102716 190.70092773 1.88647461 C188.64169313 1.88675645 186.58245842 1.88659881 184.52322388 1.8860321 C178.91394913 1.88574401 173.30469556 1.89164265 167.69542575 1.89860606 C161.8404137 1.90483763 155.98540121 1.90544324 150.13038635 1.90663147 C139.03459239 1.90974537 127.93880823 1.91795955 116.84301859 1.92798096 C104.21445826 1.93914028 91.58589747 1.94465209 78.95733345 1.94967639 C52.97154894 1.96014211 26.98577787 1.97848832 1 2 Z " fill="#C3CED7" transform="translate(95,103)"/>
<path d="M0 0 C15.08996338 -0.04667809 30.17992117 -0.08196824 45.26994133 -0.10362434 C52.27617681 -0.11394599 59.28236749 -0.12802321 66.28857422 -0.15087891 C73.04476669 -0.17290853 79.80090289 -0.18455535 86.55713272 -0.18975449 C89.14003357 -0.19346155 91.72293174 -0.20070005 94.30581284 -0.21146011 C97.91210275 -0.22589163 101.51819777 -0.22798144 105.12451172 -0.22705078 C106.20200684 -0.23424133 107.27950195 -0.24143188 108.38964844 -0.24884033 C109.36843964 -0.246091 110.34723083 -0.24334167 111.35568237 -0.24050903 C112.63605283 -0.24327441 112.63605283 -0.24327441 113.94228935 -0.24609566 C116 0 116 0 118 2 C117.67 2.99 117.34 3.98 117 5 C116.01 5.33 115.02 5.66 114 6 C113.67 12.6 113.34 19.2 113 26 C112.67 26 112.34 26 112 26 C111.505 17.09 111.505 17.09 111 8 C74.37 7.67 37.74 7.34 0 7 C0 4.69 0 2.38 0 0 Z " fill="#143046" transform="translate(203,88)"/>
<path d="M0 0 C77.22 0 154.44 0 234 0 C234 0.33 234 0.66 234 1 C178.065 1.495 178.065 1.495 121 2 C121 3.65 121 5.3 121 7 C175.45 7.495 175.45 7.495 231 8 C231 8.33 231 8.66 231 9 C156.42 9 81.84 9 5 9 C5 8.67 5 8.34 5 8 C41.3 8 77.6 8 115 8 C115 6.02 115 4.04 115 2 C76.72 2 38.44 2 -1 2 C-0.67 1.34 -0.34 0.68 0 0 Z " fill="#4E5F6E" transform="translate(83,87)"/>
<path d="M0 0 C0.33 0 0.66 0 1 0 C1.90886048 7.43602703 2.13806697 14.75635033 2.11352539 22.24267578 C2.11364593 23.4432556 2.11376646 24.64383541 2.11389065 25.88079643 C2.11314912 29.73565451 2.10555572 33.59046317 2.09765625 37.4453125 C2.09618448 39.83780901 2.09516522 42.23030584 2.09460449 44.62280273 C2.0893789 53.45687343 2.07541764 62.29093721 2.0625 71.125 C2.041875 90.88375 2.02125 110.6425 2 131 C-71.59 131 -145.18 131 -221 131 C-221 130.67 -221 130.34 -221 130 C-148.4 129.67 -75.8 129.34 -1 129 C-0.67 86.43 -0.34 43.86 0 0 Z " fill="#F4FBFD" transform="translate(312,102)"/>
<path d="M0 0 C61.05 0 122.1 0 185 0 C185 0.33 185 0.66 185 1 C183.78098999 1.03758423 183.78098999 1.03758423 182.53735352 1.07592773 C178.87889248 1.19149118 175.22071472 1.31439584 171.5625 1.4375 C170.28310547 1.47681641 169.00371094 1.51613281 167.68554688 1.55664062 C165.86313477 1.61948242 165.86313477 1.61948242 164.00390625 1.68359375 C162.87799072 1.72025146 161.7520752 1.75690918 160.59204102 1.79467773 C158.07146559 1.71218045 158.07146559 1.71218045 157 3 C155.37008445 3.09823093 153.73590014 3.12631949 152.10302734 3.12698364 C151.04291443 3.12980347 149.98280151 3.13262329 148.89056396 3.13552856 C147.13102386 3.13249222 147.13102386 3.13249222 145.3359375 3.12939453 C144.10844788 3.13114685 142.88095825 3.13289917 141.61627197 3.13470459 C138.24031721 3.13836283 134.86442339 3.13748964 131.48847198 3.1343255 C127.96285416 3.13180157 124.43723902 3.13413954 120.91162109 3.13571167 C114.98990407 3.13753327 109.06819951 3.13512732 103.14648438 3.13037109 C96.2908319 3.12492849 89.43520917 3.12669115 82.57955742 3.1321975 C76.70355919 3.13672891 70.82756993 3.13737904 64.95157051 3.13475883 C61.43765907 3.13319621 57.92376163 3.13300188 54.40985107 3.13629532 C50.49457637 3.13970832 46.57933523 3.13498383 42.6640625 3.12939453 C41.49103577 3.13141876 40.31800903 3.13344299 39.10943604 3.13552856 C37.51926666 3.13129883 37.51926666 3.13129883 35.89697266 3.12698364 C34.97002594 3.12660662 34.04307922 3.12622959 33.08804321 3.12584114 C31 3 31 3 30 2 C27.78312006 1.84126045 25.56144702 1.74866163 23.33984375 1.68359375 C22.34314415 1.6524221 22.34314415 1.6524221 21.3263092 1.62062073 C19.19681457 1.55506342 17.06719332 1.49621215 14.9375 1.4375 C13.49673153 1.39432061 12.05597601 1.35070651 10.61523438 1.30664062 C7.0769596 1.19937607 3.53854131 1.09812629 0 1 C0 0.67 0 0.34 0 0 Z " fill="#163246" transform="translate(95,227)"/>
<path d="M0 0 C41.58 0 83.16 0 126 0 C126 0.66 126 1.32 126 2 C85.41 2 44.82 2 3 2 C2.67 26.42 2.34 50.84 2 76 C1.01 76.495 1.01 76.495 0 77 C0 51.59 0 26.18 0 0 Z " fill="#152F43" transform="translate(92,100)"/>
<path d="M0 0 C17.82 0 35.64 0 54 0 C54 0.99 54 1.98 54 3 C36.18 3 18.36 3 0 3 C0 2.01 0 1.02 0 0 Z " fill="#D5E0E7" transform="translate(174,278)"/>
<path d="M0 0 C1.32 0.33 2.64 0.66 4 1 C4 1.99 4 2.98 4 4 C4.66 4 5.32 4 6 4 C6.33 4.66 6.66 5.32 7 6 C8.65 5.67 10.3 5.34 12 5 C12.33 5.99 12.66 6.98 13 8 C13.66 8 14.32 8 15 8 C15 7.34 15 6.68 15 6 C16.98 6 18.96 6 21 6 C21.33 7.65 21.66 9.3 22 11 C21.34 11 20.68 11 20 11 C20.33 11.99 20.66 12.98 21 14 C11.64516129 14.32258065 11.64516129 14.32258065 7 12 C4.8125 9.0625 4.8125 9.0625 3 6 C2.4225 5.443125 1.845 4.88625 1.25 4.3125 C0 3 0 3 0 0 Z " fill="#317BB6" transform="translate(218,155)"/>
<path d="M0 0 C-0.55555119 6.94438982 -2.8161422 11.23233197 -8 15.8125 C-10.54266943 17.66652979 -11.94118058 18.6470593 -15 19 C-14.1875 17.0625 -14.1875 17.0625 -13 15 C-12.01 14.67 -11.02 14.34 -10 14 C-9.67 13.34 -9.34 12.68 -9 12 C-9.66 11.34 -10.32 10.68 -11 10 C-11 9.01 -11 8.02 -11 7 C-11.66 6.34 -12.32 5.68 -13 5 C-11.39967863 4.15930585 -9.79458829 3.32768495 -8.1875 2.5 C-6.84751953 1.80390625 -6.84751953 1.80390625 -5.48046875 1.09375 C-3 0 -3 0 0 0 Z " fill="#4780B2" transform="translate(187,151)"/>
<path d="M0 0 C0.33 0 0.66 0 1 0 C1 5.28 1 10.56 1 16 C2.98 15.34 4.96 14.68 7 14 C7.33 13.01 7.66 12.02 8 11 C8.78375 11.04125 9.5675 11.0825 10.375 11.125 C13.16116119 11.28728734 13.16116119 11.28728734 15 9 C18.125 8.875 18.125 8.875 21 9 C21 8.34 21 7.68 21 7 C23.87628117 4.3367767 26.2216909 3.71481523 30 3 C30.33 2.34 30.66 1.68 31 1 C33.64860427 0.40644386 36.29197322 0.25790731 39 0 C31.46006464 6.0036956 21.96617003 9.52962519 13.25268555 13.55175781 C10.36424691 14.88614389 7.50988778 16.25197534 4.6796875 17.70703125 C2 19 2 19 0 19 C0 12.73 0 6.46 0 0 Z " fill="#4D82AB" transform="translate(98,176)"/>
<path d="M0 0 C1.63671875 0.82421875 1.63671875 0.82421875 3.88671875 2.32421875 C2.07421875 2.94921875 2.07421875 2.94921875 -0.11328125 3.32421875 C-1.10328125 2.66421875 -2.09328125 2.00421875 -3.11328125 1.32421875 C-6.51780902 1.22531182 -6.51780902 1.22531182 -10.23828125 1.57421875 C-12.12933594 1.70570313 -12.12933594 1.70570313 -14.05859375 1.83984375 C-15.06664062 1.9996875 -16.0746875 2.15953125 -17.11328125 2.32421875 C-17.44328125 2.98421875 -17.77328125 3.64421875 -18.11328125 4.32421875 C-16.13328125 4.32421875 -14.15328125 4.32421875 -12.11328125 4.32421875 C-11.78328125 4.98421875 -11.45328125 5.64421875 -11.11328125 6.32421875 C-9.47359375 6.75734375 -9.47359375 6.75734375 -7.80078125 7.19921875 C-4.03273803 8.34879126 -2.58650443 9.35635094 -0.11328125 12.32421875 C-1.10328125 12.81921875 -1.10328125 12.81921875 -2.11328125 13.32421875 C-3.90087891 12.70336914 -3.90087891 12.70336914 -6.02734375 11.671875 C-7.16816406 11.12563477 -7.16816406 11.12563477 -8.33203125 10.56835938 C-9.12609375 10.17841797 -9.92015625 9.78847656 -10.73828125 9.38671875 C-11.54007813 9.00064453 -12.341875 8.61457031 -13.16796875 8.21679688 C-15.15325971 7.25960302 -17.13469862 6.295184 -19.11328125 5.32421875 C-19.11328125 4.00421875 -19.11328125 2.68421875 -19.11328125 1.32421875 C-13.23481189 -1.38311301 -6.23785341 -1.99472946 0 0 Z " fill="#5C8CB3" transform="translate(242.11328125,134.67578125)"/>
<path d="M0 0 C0.66 0 1.32 0 2 0 C2.33 0.66 2.66 1.32 3 2 C3.33 1.34 3.66 0.68 4 0 C4.99 0 5.98 0 7 0 C7.33 0.99 7.66 1.98 8 3 C8.33 2.01 8.66 1.02 9 0 C9.66 0 10.32 0 11 0 C10.67 3.3 10.34 6.6 10 10 C9.01 10 8.02 10 7 10 C6.67 9.34 6.34 8.68 6 8 C5.67 8.66 5.34 9.32 5 10 C4.01 10 3.02 10 2 10 C1.34 6.7 0.68 3.4 0 0 Z " fill="#314554" transform="translate(216,189)"/>
<path d="M0 0 C2.31 0 4.62 0 7 0 C7.19412181 1.47831221 7.38012131 2.95769316 7.5625 4.4375 C7.66691406 5.26121094 7.77132812 6.08492187 7.87890625 6.93359375 C7.91886719 7.61550781 7.95882812 8.29742187 8 9 C7 10 7 10 3.4375 10.0625 C2.303125 10.041875 1.16875 10.02125 0 10 C0 6.7 0 3.4 0 0 Z " fill="#283A4A" transform="translate(190,189)"/>
<path d="M0 0 C2.97 0.99 5.94 1.98 9 3 C9 3.99 9 4.98 9 6 C7.02 5.34 5.04 4.68 3 4 C3.18828772 6.44480079 3.18828772 6.44480079 4 9 C5.3153341 9.70151152 6.65117592 10.36525925 8 11 C9.625 13.4375 9.625 13.4375 11 16 C11.66 16.99 12.32 17.98 13 19 C8.09087256 16.84820185 4.96326236 13.41130492 2 9 C0.91809029 5.94325072 0.45499876 3.2355467 0 0 Z " fill="#5284AC" transform="translate(215,151)"/>
<path d="M0 0 C0.66 0 1.32 0 2 0 C2 1.65 2 3.3 2 5 C2.66 5 3.32 5 4 5 C4 3.35 4 1.7 4 0 C4.66 0.33 5.32 0.66 6 1 C7.99021521 0.90276549 7.99021521 0.90276549 10.125 0.5625 C11.40375 0.376875 12.6825 0.19125 14 0 C13.01 0.33 12.02 0.66 11 1 C11 2.32 11 3.64 11 5 C11.99 5.33 12.98 5.66 14 6 C12.68 6 11.36 6 10 6 C9.67 6.66 9.34 7.32 9 8 C7.68 7.34 6.36 6.68 5 6 C5 6.66 5 7.32 5 8 C1.125 6.125 1.125 6.125 0 5 C-0.04063832 3.33382885 -0.042721 1.66611905 0 0 Z " fill="#C8D3D9" transform="translate(184,205)"/>
<path d="M0 0 C0.94875 0.04125 1.8975 0.0825 2.875 0.125 C2.875 0.785 2.875 1.445 2.875 2.125 C1.225 2.125 -0.425 2.125 -2.125 2.125 C-2.125 4.105 -2.125 6.085 -2.125 8.125 C-1.135 8.125 -0.145 8.125 0.875 8.125 C0.545 6.805 0.215 5.485 -0.125 4.125 C1.195 4.125 2.515 4.125 3.875 4.125 C3.875 6.105 3.875 8.085 3.875 10.125 C0.5 10.3125 0.5 10.3125 -3.125 10.125 C-5.27415785 6.90126323 -5.50786803 5.85796326 -5.125 2.125 C-3.125 0.125 -3.125 0.125 0 0 Z " fill="#4B5964" transform="translate(207.125,188.875)"/>
<path d="M0 0 C0 0.66 0 1.32 0 2 C-0.99 2 -1.98 2 -3 2 C-3.33 3.32 -3.66 4.64 -4 6 C-5.65 6.33 -7.3 6.66 -9 7 C-9 7.99 -9 8.98 -9 10 C-11.97 10 -14.94 10 -18 10 C-17 7 -17 7 -13.69140625 5.17578125 C-12.32000027 4.54395017 -10.94341651 3.92326547 -9.5625 3.3125 C-8.86833984 2.99216797 -8.17417969 2.67183594 -7.45898438 2.34179688 C-2.30103945 0 -2.30103945 0 0 0 Z " fill="#558AB6" transform="translate(146,153)"/>
<path d="M0 0 C2.875 -0.125 2.875 -0.125 6 0 C6.66 0.66 7.32 1.32 8 2 C7.625 4.125 7.625 4.125 7 6 C5.35 6.33 3.7 6.66 2 7 C2 7.99 2 8.98 2 10 C1.34 10 0.68 10 0 10 C0 6.7 0 3.4 0 0 Z " fill="#384956" transform="translate(178,189)"/>
<path d="M0 0 C1.65 0 3.3 0 5 0 C4.01 0.66 3.02 1.32 2 2 C2.4979837 5.73487777 2.87491756 7.81237635 5 11 C5 11.99 5 12.98 5 14 C9.95 12.515 9.95 12.515 15 11 C12 15 12 15 9.5 15.8125 C7 16 7 16 4 15 C4 14.01 4 13.02 4 12 C3.360625 11.79375 2.72125 11.5875 2.0625 11.375 C0 10 0 10 -0.8125 7.125 C-0.97708001 4.38199986 -0.88783992 2.56487088 0 0 Z " fill="#5385AE" transform="translate(159,146)"/>
<path d="M0 0 C2.475 0.99 2.475 0.99 5 2 C5 8.27 5 14.54 5 21 C0.65137149 20.1302743 -2.16270693 19.0525056 -6 17 C-1.98843085 15.51423365 -1.51869696 16.19252122 3 18 C3 13.38 3 8.76 3 4 C2.01 3.67 1.02 3.34 0 3 C0 2.01 0 1.02 0 0 Z " fill="#5184AC" transform="translate(299,174)"/>
<path d="M0 0 C0.66 0.33 1.32 0.66 2 1 C4.0374763 1.22858114 6.08040303 1.41024278 8.125 1.5625 C9.76855469 1.68818359 9.76855469 1.68818359 11.4453125 1.81640625 C12.28835937 1.87699219 13.13140625 1.93757812 14 2 C12 4 12 4 9.1796875 4.1953125 C8.08914062 4.17210937 6.99859375 4.14890625 5.875 4.125 C4.77929688 4.10695312 3.68359375 4.08890625 2.5546875 4.0703125 C1.71164063 4.04710937 0.86859375 4.02390625 0 4 C0 3.34 0 2.68 0 2 C-2.64 2 -5.28 2 -8 2 C-8 1.34 -8 0.68 -8 0 C-4.67803635 -1.10732122 -3.31749961 -0.85064093 0 0 Z " fill="#5F8EB2" transform="translate(158,168)"/>
<path d="M0 0 C0.33 0 0.66 0 1 0 C1.16986545 1.56215548 1.33573964 3.1247452 1.5 4.6875 C1.5928125 5.55761719 1.685625 6.42773438 1.78125 7.32421875 C1.99159864 9.89723339 2.03719144 12.41984364 2 15 C2.639375 15.12375 3.27875 15.2475 3.9375 15.375 C4.618125 15.58125 5.29875 15.7875 6 16 C6.33 16.66 6.66 17.32 7 18 C5.68 18.33 4.36 18.66 3 19 C0.43238452 16.38521048 0.0043655 15.05471424 -0.29296875 11.328125 C-0.27316751 9.96843965 -0.23759202 8.6089066 -0.1875 7.25 C-0.17396484 6.55261719 -0.16042969 5.85523438 -0.14648438 5.13671875 C-0.1112945 3.42414459 -0.05749155 1.71197059 0 0 Z " fill="#243847" transform="translate(79,223)"/>
<path d="M0 0 C-6.07439825 4.90153173 -6.07439825 4.90153173 -9.9375 5.3125 C-10.618125 5.209375 -11.29875 5.10625 -12 5 C-11.67 7.64 -11.34 10.28 -11 13 C-13.08367722 10.7496286 -14.01886568 9.66134689 -13.9296875 6.53515625 C-13 4 -13 4 -10.56640625 2.3828125 C-9.57511719 1.96773437 -8.58382812 1.55265625 -7.5625 1.125 C-6.07943359 0.47917969 -6.07943359 0.47917969 -4.56640625 -0.1796875 C-2 -1 -2 -1 0 0 Z " fill="#CFE6F3" transform="translate(174,143)"/>
<path d="M0 0 C1.67542976 0.28604898 3.34385343 0.61781233 5 1 C4.67 2.65 4.34 4.3 4 6 C2.35 6 0.7 6 -1 6 C-1.042721 4.33388095 -1.04063832 2.66617115 -1 1 C-0.67 0.67 -0.34 0.34 0 0 Z " fill="#BCCBD1" transform="translate(165,205)"/>
<path d="M0 0 C1.98 0 3.96 0 6 0 C5.01 1.175625 5.01 1.175625 4 2.375 C1.79798559 4.71512812 1.79798559 4.71512812 2 7 C1.34 7 0.68 7 0 7 C0 8.65 0 10.3 0 12 C-0.33 12 -0.66 12 -1 12 C-2.42857143 3.42857143 -2.42857143 3.42857143 0 0 Z " fill="#D7DFE4" transform="translate(205,199)"/>
<path d="M0 0 C0.66 0.33 1.32 0.66 2 1 C2 1.99 2 2.98 2 4 C1.34 4 0.68 4 0 4 C-0.2475 4.61875 -0.495 5.2375 -0.75 5.875 C-2.20628639 8.35068687 -3.37812506 8.95125002 -6 10 C-5.49477778 5.62140745 -2.82172778 3.18348776 0 0 Z " fill="#354955" transform="translate(348,281)"/>
<path d="M0 0 C0 1.65 0 3.3 0 5 C-1.65 5 -3.3 5 -5 5 C-5.33 3.35 -5.66 1.7 -6 0 C-3.50907189 -1.24546405 -2.58919267 -0.7767578 0 0 Z " fill="#DDE6EB" transform="translate(204,89)"/>
<path d="M0 0 C0.99 0.33 1.98 0.66 3 1 C0.11658466 5.21422242 -2.04303419 6.76075855 -7 8 C-6.1875 6.0625 -6.1875 6.0625 -5 4 C-4.01 3.67 -3.02 3.34 -2 3 C-1.34 2.01 -0.68 1.02 0 0 Z " fill="#477DAB" transform="translate(179,162)"/>
<path d="M0 0 C0 2 0 2 -2.5 4.625 C-3.325 5.40875 -4.15 6.1925 -5 7 C-7.475 6.01 -7.475 6.01 -10 5 C-8.28489314 1.56978628 -3.75681361 0 0 0 Z " fill="#5188B5" transform="translate(184,152)"/>
<path d="M0 0 C1.98 0.66 3.96 1.32 6 2 C6 2.66 6 3.32 6 4 C4.02 4.66 2.04 5.32 0 6 C-0.99 4.68 -1.98 3.36 -3 2 C-2.01 2 -1.02 2 0 2 C0 1.34 0 0.68 0 0 Z " fill="#4882AC" transform="translate(174,135)"/>
<path d="M0 0 C1.32 0 2.64 0 4 0 C4.33 1.98 4.66 3.96 5 6 C3.35 6 1.7 6 0 6 C0 4.02 0 2.04 0 0 Z " fill="#A9BBC6" transform="translate(222,205)"/>
<path d="M0 0 C1.32 0 2.64 0 4 0 C4.33 1.65 4.66 3.3 5 5 C3.35 5.33 1.7 5.66 0 6 C0 4.02 0 2.04 0 0 Z " fill="#B7C5CE" transform="translate(175,205)"/>
<path d="M0 0 C0.66 0 1.32 0 2 0 C5 6.625 5 6.625 5 10 C4.01 10 3.02 10 2 10 C1.34 6.7 0.68 3.4 0 0 Z " fill="#3C4D5A" transform="translate(216,189)"/>
<path d="M0 0 C2.31 0 4.62 0 7 0 C6.01 0.495 6.01 0.495 5 1 C5 1.99 5 2.98 5 4 C4.01 4 3.02 4 2 4 C1.67 5.98 1.34 7.96 1 10 C0.67 10 0.34 10 0 10 C0 6.7 0 3.4 0 0 Z " fill="#71828E" transform="translate(190,189)"/>
<path d="M0 0 C0.33 0.99 0.66 1.98 1 3 C-1.51830747 6.12270126 -2.7261549 6.94523098 -6.75 7.75 C-8.35875 7.87375 -8.35875 7.87375 -10 8 C-9.195625 7.4121875 -9.195625 7.4121875 -8.375 6.8125 C-5.50791468 4.6244612 -2.76035432 2.32120704 0 0 Z " fill="#D2E7F3" transform="translate(182,163)"/>
<path d="M0 0 C1.36119392 2.72238784 0.76129827 4.09322479 0 7 C-1.0625 9.3125 -1.0625 9.3125 -2 11 C-2.66 11 -3.32 11 -4 11 C-3.71758359 9.53984709 -3.42373386 8.08190207 -3.125 6.625 C-2.96257812 5.81289062 -2.80015625 5.00078125 -2.6328125 4.1640625 C-2 2 -2 2 0 0 Z " fill="#5688B0" transform="translate(150,142)"/>
<path d="M0 0 C1.32 0 2.64 0 4 0 C4 1.98 4 3.96 4 6 C2.68 6 1.36 6 0 6 C0 4.02 0 2.04 0 0 Z " fill="#9DB9CA" transform="translate(106,205)"/>
<path d="M0 0 C0.66 0.33 1.32 0.66 2 1 C1.67 2.65 1.34 4.3 1 6 C-0.32 5.67 -1.64 5.34 -3 5 C-3 3.68 -3 2.36 -3 1 C-2.01 0.67 -1.02 0.34 0 0 Z " fill="#687984" transform="translate(196,193)"/>
<path d="M0 0 C0.66 1.32 1.32 2.64 2 4 C1.67 4.66 1.34 5.32 1 6 C0.34 6 -0.32 6 -1 6 C-2.67745682 6.63903117 -4.34561387 7.30341637 -6 8 C-4.02 5.36 -2.04 2.72 0 0 Z " fill="#3B4F5E" transform="translate(74,256)"/>
<path d="M0 0 C0.99 0.33 1.98 0.66 3 1 C2.67 1.33 2.34 1.66 2 2 C2.66 2.33 3.32 2.66 4 3 C4 3.99 4 4.98 4 6 C2.35 6 0.7 6 -1 6 C-1.042721 4.33388095 -1.04063832 2.66617115 -1 1 C-0.67 0.67 -0.34 0.34 0 0 Z " fill="#BECCD3" transform="translate(240,205)"/>
<path d="M0 0 C2.475 0.495 2.475 0.495 5 1 C5 2.65 5 4.3 5 6 C4.34 6 3.68 6 3 6 C3 5.34 3 4.68 3 4 C2.34 4 1.68 4 1 4 C0.67 4.66 0.34 5.32 0 6 C0 4.02 0 2.04 0 0 Z " fill="#A6B9C5" transform="translate(155,205)"/>
<path d="M0 0 C1.98 0 3.96 0 6 0 C5.67 1.32 5.34 2.64 5 4 C3.68 4.33 2.36 4.66 1 5 C0.67 3.35 0.34 1.7 0 0 Z " fill="#7D8C96" transform="translate(180,191)"/>
<path d="M0 0 C0.33 0.99 0.66 1.98 1 3 C5.95 1.515 5.95 1.515 11 0 C8 4 8 4 5.5 4.8125 C3 5 3 5 0 4 C0 2.68 0 1.36 0 0 Z " fill="#5D8EB7" transform="translate(163,157)"/>
<path d="M0 0 C2.97 0.495 2.97 0.495 6 1 C5.34 2.98 4.68 4.96 4 7 C3.34 7 2.68 7 2 7 C2 5.35 2 3.7 2 2 C1.34 2 0.68 2 0 2 C0 1.34 0 0.68 0 0 Z " fill="#CDD9DE" transform="translate(248,204)"/>
<path d="M0 0 C1.32 0 2.64 0 4 0 C4 1.98 4 3.96 4 6 C2.68 6 1.36 6 0 6 C0 4.02 0 2.04 0 0 Z " fill="#A1B7C5" transform="translate(272,205)"/>
<path d="M0 0 C1.65 0 3.3 0 5 0 C4.67 1.32 4.34 2.64 4 4 C3.01 4 2.02 4 1 4 C0.67 4.66 0.34 5.32 0 6 C0 4.02 0 2.04 0 0 Z " fill="#AFBDC8" transform="translate(146,205)"/>
<path d="M0 0 C5.4611399 0.35233161 5.4611399 0.35233161 8 1 C9.5 3.0625 9.5 3.0625 10 5 C6.08788267 3.84414715 3.1254959 2.64465038 0 0 Z " fill="#5E8CB1" transform="translate(293,190)"/>
<path d="M0 0 C0 3 0 3 -1 5 C-0.34 5 0.32 5 1 5 C1 5.66 1 6.32 1 7 C-0.98 7.99 -0.98 7.99 -3 9 C-3.1875 5.625 -3.1875 5.625 -3 2 C-2.01 1.34 -1.02 0.68 0 0 Z " fill="#3C7AAD" transform="translate(102,174)"/>
<path d="M0 0 C1.32 0 2.64 0 4 0 C4 0.66 4 1.32 4 2 C3.34 2 2.68 2 2 2 C2 3.32 2 4.64 2 6 C2.66 6.33 3.32 6.66 4 7 C2.68 7 1.36 7 0 7 C0 4.69 0 2.38 0 0 Z " fill="#B6C4CD" transform="translate(231,204)"/>
<path d="M0 0 C0.99 0.33 1.98 0.66 3 1 C2.67 1.33 2.34 1.66 2 2 C2.66 2.33 3.32 2.66 4 3 C3.67 3.99 3.34 4.98 3 6 C1.68 6 0.36 6 -1 6 C-0.67 4.02 -0.34 2.04 0 0 Z " fill="#B2C2CA" transform="translate(124,205)"/>
<path d="M0 0 C-2.55068845 2.35448165 -3.71017358 2.98327924 -7.25 3.1875 C-8.1575 3.125625 -9.065 3.06375 -10 3 C-4.375 -1.3125 -4.375 -1.3125 0 0 Z " fill="#CAE1EF" transform="translate(120,187)"/>
<path d="M0 0 C0.515625 0.268125 1.03125 0.53625 1.5625 0.8125 C4.66401415 2.32349407 7.82262806 3.65572726 11 5 C9 6 9 6 5.5 5.3125 C2 4 2 4 0.5625 1.875 C0.376875 1.25625 0.19125 0.6375 0 0 Z " fill="#6292B6" transform="translate(277,163)"/>
<path d="M0 0 C0.763125 0.556875 1.52625 1.11375 2.3125 1.6875 C2.3125 2.3475 2.3125 3.0075 2.3125 3.6875 C-0.03921131 3.08888258 -2.3734378 2.41825648 -4.6875 1.6875 C-5.0175 1.0275 -5.3475 0.3675 -5.6875 -0.3125 C-2.6875 -1.3125 -2.6875 -1.3125 0 0 Z " fill="#D9EFF7" transform="translate(229.6875,154.3125)"/>
<path d="M0 0 C3.91211733 1.15585285 6.8745041 2.35534962 10 5 C8.51793505 4.745504 7.03931385 4.47088238 5.5625 4.1875 C4.73878906 4.03667969 3.91507812 3.88585937 3.06640625 3.73046875 C2.38449219 3.48941406 1.70257813 3.24835938 1 3 C0.67 2.01 0.34 1.02 0 0 Z " fill="#5286AF" transform="translate(288,169)"/>
<path d="M0 0 C6.52307692 0.49230769 6.52307692 0.49230769 8.9375 3.0625 C9.288125 3.701875 9.63875 4.34125 10 5 C2.42857143 3.14285714 2.42857143 3.14285714 0 0 Z " fill="#5D8CB2" transform="translate(250,169)"/>
<path d="M0 0 C0.66 0.33 1.32 0.66 2 1 C-0.75 3.0625 -0.75 3.0625 -4 5 C-6.203125 4.62109375 -6.203125 4.62109375 -8 4 C-6.71349294 3.30289269 -5.42059335 2.61757124 -4.125 1.9375 C-3.40570313 1.55464844 -2.68640625 1.17179688 -1.9453125 0.77734375 C-1.30335937 0.52082031 -0.66140625 0.26429688 0 0 Z " fill="#6C97BD" transform="translate(120,165)"/>
</svg>
